<?xml version="1.0" standalone="no"?>
<!DOCTYPE svg PUBLIC "-//W3C//DTD SVG 20010904//EN"
 "http://www.w3.org/TR/2001/REC-SVG-20010904/DTD/svg10.dtd">
<svg version="1.0" xmlns="http://www.w3.org/2000/svg"
 width="700.000000pt" height="700.000000pt" viewBox="0 0 700.000000 700.000000"
 preserveAspectRatio="xMidYMid meet">
<metadata>
Created by potrace 1.11, written by Peter Selinger 2001-2013
</metadata>
<g transform="translate(0.000000,700.000000) scale(0.100000,-0.100000)"
fill="#000000" stroke="none">
<path d="M3474 6540 c-42 -9 -90 -39 -104 -65 -10 -19 -20 -22 -92 -22 -73 -1
-112 -4 -238 -19 -90 -11 -277 -57 -370 -91 -223 -82 -413 -208 -565 -374 -66
-72 -142 -209 -189 -344 -10 -27 -22 -59 -26 -70 -15 -41 -41 -132 -56 -200
-17 -77 -18 -80 -30 -145 -4 -25 -8 -47 -9 -50 -2 -8 -19 -124 -20 -140 -1 -8
-5 -44 -8 -80 -12 -114 -18 -201 -22 -374 -3 -94 -8 -173 -12 -177 -5 -3 -57
-32 -118 -64 -195 -102 -195 -102 -195 -151 0 -76 99 -121 197 -90 19 6 19 3
13 -39 -4 -25 -6 -73 -4 -107 11 -267 94 -508 220 -645 53 -57 60 -74 79 -208
4 -23 11 -63 30 -155 2 -14 7 -41 10 -60 4 -19 10 -53 15 -75 5 -22 12 -56 15
-75 39 -223 130 -541 177 -620 54 -89 173 -202 258 -245 19 -10 38 -22 42 -28
3 -6 6 -68 6 -138 l-1 -127 -61 -26 c-34 -14 -144 -59 -246 -101 -102 -41
-194 -79 -205 -84 -25 -10 -3 -2 -445 -182 -383 -157 -446 -183 -495 -204 -16
-8 -120 -50 -230 -95 -110 -44 -209 -85 -220 -90 -11 -5 -72 -30 -135 -55
-138 -56 -281 -126 -372 -184 l-68 -43 0 -234 0 -234 3500 0 3500 0 0 248 c0
278 5 258 -75 302 -100 56 -225 114 -410 190 -110 45 -213 87 -230 95 -16 7
-104 43 -195 80 -140 57 -311 127 -770 317 -41 17 -93 38 -115 48 -22 9 -169
70 -327 135 l-288 118 0 132 0 132 48 26 c120 67 230 180 283 294 33 71 103
309 125 423 3 14 10 43 15 65 5 22 12 54 15 70 3 17 11 64 20 105 8 41 16 86
19 100 3 14 12 66 21 115 8 50 17 101 20 115 2 14 7 40 10 59 3 20 28 60 66
105 125 148 203 380 212 630 1 38 0 87 -4 107 l-7 38 51 -3 c28 -2 63 1 77 6
36 12 79 62 79 92 0 44 -19 57 -266 185 l-62 32 -1 98 c-2 126 -15 338 -26
429 -3 23 -7 61 -10 85 -3 23 -7 53 -10 67 -2 14 -7 41 -10 60 -52 331 -144
616 -269 834 -19 33 -139 147 -211 201 -148 110 -365 210 -525 241 -14 3 -41
9 -60 14 -19 4 -57 11 -83 15 -27 3 -59 9 -70 11 -12 3 -96 7 -187 9 -158 4
-165 6 -185 28 -41 48 -120 71 -191 57z"/>
</g>
</svg>
